<svg width="256" height="256" viewBox="0 0 256 256" fill="none" xmlns="http://www.w3.org/2000/svg">
<g clip-path="url(#clip0_211_2)">
<path d="M128.455 0.895981C128.173 0.754837 127.827 0.754837 127.545 0.895981L1.57812 64.1059C1.29685 64.2472 1.12358 64.5079 1.12358 64.7901V191.21C1.12358 191.492 1.29685 191.753 1.57812 191.894L127.545 255.104C127.827 255.245 128.173 255.245 128.455 255.104L254.422 191.894C254.703 191.753 254.876 191.492 254.876 191.21V64.7901C254.876 64.5079 254.703 64.2472 254.422 64.1059L128.455 0.895981Z" fill="#FFFFFF" stroke="#595C5F" stroke-width="3" stroke-linejoin="round"/>
<path d="M128.227 9.13936C128.087 9.06878 127.913 9.06878 127.773 9.13936L9.67836 68.3985C9.53771 68.4693 9.45109 68.5995 9.45109 68.7407V187.259C9.45109 187.401 9.53771 187.531 9.67836 187.602L127.773 246.861C127.913 246.931 128.087 246.931 128.227 246.861L246.322 187.602C246.462 187.531 246.549 187.401 246.549 187.259V68.7407C246.549 68.5995 246.462 68.4693 246.322 68.3985L128.227 9.13936Z" fill="#FFFFFF" stroke="#595C5F" stroke-width="3" stroke-linejoin="round"/>
<path d="M177.732 171.224C166.749 180.77 152.539 187.009 137.181 189.027C121.823 191.046 106.125 188.738 92.3855 182.441C78.6462 176.145 67.5869 166.191 60.8273 154.036C54.068 141.882 51.9629 128.166 54.8211 114.897C57.6793 101.628 65.3502 89.5023 76.7105 80.2961C88.0709 71.0899 102.524 65.287 117.954 63.7364C133.384 62.1859 148.979 64.9696 162.457 71.68C175.934 78.39 186.586 88.6746 192.852 101.027L126.307 126.528L177.732 171.224Z" fill="#595C5F"/>
<path d="M137.091 183.309C172.236 183.309 200.727 158.546 200.727 128C200.727 97.4539 172.236 72.6914 137.091 72.6914C101.946 72.6914 73.4545 97.4539 73.4545 128C73.4545 158.546 101.946 183.309 137.091 183.309Z" fill="#FFFFFF"/>
</g>
<defs>
<clipPath id="clip0_211_2">
<rect width="256" height="256" fill="white"/>
</clipPath>
</defs>
</svg>
